# xmcd CD database file
# Copyright (C) 1996 Ti Kan
#
# Track frame offsets:
# 	150
# 	12720
# 	22825
# 	30232
# 	42712
# 	54387
# 	64212
# 	76205
# 	86145
# 	97365
# 	109122
# 	122420
# 	135180
# 	144805
# 	152220
# 	163772
#
# Disc length: 2306 seconds
#
# Revision: 1
# Processed by: cddbd v1.4b41PL1 Copyright (c) Steve Scherf et al.
# Submitted via: DiscPlay 3.4.1
#
DISCID=cc090010
DTITLE=Various Artist - 16 Greatest Original Blue Grass Hits
DYEAR=1900
DGENRE=
TTITLE0=Doing My Time  -  Flatt and Scruggs
TTITLE1=Love Me Darlin Just Tonight  -  Stanley Bros.
TTITLE2=Talking Banjo  - Buzz Busby
TTITLE3=She's Just a Cute Thing  -  Jimmy Martin and Bob Osborne
TTITLE4=Family Reunion  -  Carl Story
TTITLE5=Walking in My Sleep  -  Bill Clifton
TTITLE6=Footprints in the Snow  -  Hylo Brown
TTITLE7=Great Balls of Fire  -  New Grass Revival
TTITLE8=Don't Let Your Sweet Love Die  -  Reno and Smiley
TTITLE9=Orange Blossom Breakdown  -  Stonemans
TTITLE10='Tis Sweet To Be Remembered  -  Mac Wiseman
TTITLE11=Hey Little Girl  -  Country Gentlemen
TTITLE12=Truck Driver's Queen  -  Moore and Napier
TTITLE13=Round Town Gals  -  Jim Eanes
TTITLE14=Hard Hearted  -  Jim and Jesse
TTITLE15=Penitentiary Blues  -  Charlie Monroe
EXTD=
EXTT0=
EXTT1=
EXTT2=
EXTT3=
EXTT4=
EXTT5=
EXTT6=
EXTT7=
EXTT8=
EXTT9=
EXTT10=
EXTT11=
EXTT12=
EXTT13=
EXTT14=
EXTT15=
PLAYORDER=
